<svg width="11" height="38" viewBox="0 0 11 38" fill="none" xmlns="http://www.w3.org/2000/svg">
<path fill-rule="evenodd" clip-rule="evenodd" d="M10 1.75C10.4142 1.75 10.75 1.41421 10.75 1C10.75 0.585786 10.4142 0.25 10 0.25C9.58578 0.25 9.25 0.585786 9.25 1C9.25 1.41421 9.58578 1.75 10 1.75ZM10.75 5.5C10.75 5.91421 10.4142 6.25 10 6.25C9.58578 6.25 9.25 5.91421 9.25 5.5C9.25 5.08579 9.58578 4.75 10 4.75C10.4142 4.75 10.75 5.08579 10.75 5.5ZM10 10.75C10.4142 10.75 10.75 10.4142 10.75 10C10.75 9.58579 10.4142 9.25 10 9.25C9.58578 9.25 9.25 9.58579 9.25 10C9.25 10.4142 9.58578 10.75 10 10.75ZM10.75 14.5C10.75 14.9142 10.4142 15.25 10 15.25C9.58578 15.25 9.25 14.9142 9.25 14.5C9.25 14.0858 9.58578 13.75 10 13.75C10.4142 13.75 10.75 14.0858 10.75 14.5ZM10 19.75C10.4142 19.75 10.75 19.4142 10.75 19C10.75 18.5858 10.4142 18.25 10 18.25C9.58578 18.25 9.25 18.5858 9.25 19C9.25 19.4142 9.58578 19.75 10 19.75ZM10.75 23.5C10.75 23.9142 10.4142 24.25 10 24.25C9.58578 24.25 9.25 23.9142 9.25 23.5C9.25 23.0858 9.58578 22.75 10 22.75C10.4142 22.75 10.75 23.0858 10.75 23.5ZM10 28.75C10.4142 28.75 10.75 28.4142 10.75 28C10.75 27.5858 10.4142 27.25 10 27.25C9.58578 27.25 9.25 27.5858 9.25 28C9.25 28.4142 9.58578 28.75 10 28.75ZM10.75 32.5C10.75 32.9142 10.4142 33.25 10 33.25C9.58578 33.25 9.25 32.9142 9.25 32.5C9.25 32.0858 9.58578 31.75 10 31.75C10.4142 31.75 10.75 32.0858 10.75 32.5ZM1 37.75C1.41422 37.75 1.75 37.4142 1.75 37C1.75 36.5858 1.41422 36.25 1 36.25C0.585785 36.25 0.25 36.5858 0.25 37C0.25 37.4142 0.585785 37.75 1 37.75ZM6.25 37C6.25 37.4142 5.91422 37.75 5.5 37.75C5.08578 37.75 4.75 37.4142 4.75 37C4.75 36.5858 5.08578 36.25 5.5 36.25C5.91422 36.25 6.25 36.5858 6.25 37ZM10.75 37C10.75 37.4142 10.4142 37.75 10 37.75C9.58578 37.75 9.25 37.4142 9.25 37C9.25 36.5858 9.58578 36.25 10 36.25C10.4142 36.25 10.75 36.5858 10.75 37ZM5.5 33.25C5.91422 33.25 6.25 32.9142 6.25 32.5C6.25 32.0858 5.91422 31.75 5.5 31.75C5.08578 31.75 4.75 32.0858 4.75 32.5C4.75 32.9142 5.08578 33.25 5.5 33.25ZM1.75 32.5C1.75 32.9142 1.41422 33.25 1 33.25C0.585785 33.25 0.25 32.9142 0.25 32.5C0.25 32.0858 0.585785 31.75 1 31.75C1.41422 31.75 1.75 32.0858 1.75 32.5ZM6.25 28C6.25 28.4142 5.91422 28.75 5.5 28.75C5.08578 28.75 4.75 28.4142 4.75 28C4.75 27.5858 5.08578 27.25 5.5 27.25C5.91422 27.25 6.25 27.5858 6.25 28ZM1 28.75C1.41422 28.75 1.75 28.4142 1.75 28C1.75 27.5858 1.41422 27.25 1 27.25C0.585785 27.25 0.25 27.5858 0.25 28C0.25 28.4142 0.585785 28.75 1 28.75ZM5.5 24.25C5.91422 24.25 6.25 23.9142 6.25 23.5C6.25 23.0858 5.91422 22.75 5.5 22.75C5.08578 22.75 4.75 23.0858 4.75 23.5C4.75 23.9142 5.08578 24.25 5.5 24.25ZM1.75 23.5C1.75 23.9142 1.41422 24.25 1 24.25C0.585785 24.25 0.25 23.9142 0.25 23.5C0.25 23.0858 0.585785 22.75 1 22.75C1.41422 22.75 1.75 23.0858 1.75 23.5ZM6.25 19C6.25 19.4142 5.91422 19.75 5.5 19.75C5.08578 19.75 4.75 19.4142 4.75 19C4.75 18.5858 5.08578 18.25 5.5 18.25C5.91422 18.25 6.25 18.5858 6.25 19ZM1 19.75C1.41422 19.75 1.75 19.4142 1.75 19C1.75 18.5858 1.41422 18.25 1 18.25C0.585785 18.25 0.25 18.5858 0.25 19C0.25 19.4142 0.585785 19.75 1 19.75ZM5.5 15.25C5.91422 15.25 6.25 14.9142 6.25 14.5C6.25 14.0858 5.91422 13.75 5.5 13.75C5.08578 13.75 4.75 14.0858 4.75 14.5C4.75 14.9142 5.08578 15.25 5.5 15.25ZM1.75 14.5C1.75 14.9142 1.41422 15.25 1 15.25C0.585785 15.25 0.25 14.9142 0.25 14.5C0.25 14.0858 0.585785 13.75 1 13.75C1.41422 13.75 1.75 14.0858 1.75 14.5ZM6.25 10C6.25 10.4142 5.91422 10.75 5.5 10.75C5.08578 10.75 4.75 10.4142 4.75 10C4.75 9.58579 5.08578 9.25 5.5 9.25C5.91422 9.25 6.25 9.58579 6.25 10ZM1 10.75C1.41422 10.75 1.75 10.4142 1.75 10C1.75 9.58579 1.41422 9.25 1 9.25C0.585785 9.25 0.25 9.58579 0.25 10C0.25 10.4142 0.585785 10.75 1 10.75ZM5.5 6.25C5.91422 6.25 6.25 5.91421 6.25 5.5C6.25 5.08579 5.91422 4.75 5.5 4.75C5.08578 4.75 4.75 5.08579 4.75 5.5C4.75 5.91421 5.08578 6.25 5.5 6.25ZM1.75 5.5C1.75 5.91421 1.41422 6.25 1 6.25C0.585785 6.25 0.25 5.91421 0.25 5.5C0.25 5.08579 0.585785 4.75 1 4.75C1.41422 4.75 1.75 5.08579 1.75 5.5ZM6.25 1C6.25 1.41421 5.91422 1.75 5.5 1.75C5.08578 1.75 4.75 1.41421 4.75 1C4.75 0.585786 5.08578 0.25 5.5 0.25C5.91422 0.25 6.25 0.585786 6.25 1ZM1 1.75C1.41422 1.75 1.75 1.41421 1.75 1C1.75 0.585786 1.41422 0.25 1 0.25C0.585785 0.25 0.25 0.585786 0.25 1C0.25 1.41421 0.585785 1.75 1 1.75Z" fill="#E2E7E9"/>
</svg>
